<svg width="1920" height="960" viewBox="0 0 1920 960" fill="none" xmlns="http://www.w3.org/2000/svg">
<rect width="1920" height="960" fill="#1E1E1E"/>
<path d="M522.144 568H539.424V377.92H618.048V362.368H443.808V377.92H522.144V568ZM751.32 496C751.32 449.92 723.384 420.544 685.368 420.544C647.352 420.544 619.416 449.92 619.416 496C619.416 542.368 647.352 571.456 685.368 571.456C723.384 571.456 751.32 542.368 751.32 496ZM635.832 496C635.832 458.848 654.552 435.232 685.368 435.232C716.184 435.232 734.904 458.848 734.904 496C734.904 533.44 716.184 556.768 685.368 556.768C654.552 556.768 635.832 533.44 635.832 496ZM890.213 568H911.812L844.133 485.344L909.509 424H888.197L811.877 496.576V356.032H795.173V568H811.877V515.008L831.749 496.288L890.213 568ZM1059.38 527.104H1043.54C1036.63 546.4 1023.96 556.768 1002.65 556.768C972.405 556.768 952.533 536.32 951.957 498.88H1060.25V490.816C1060.25 454.528 1042.39 420.544 1000.92 420.544C963.765 420.544 935.541 449.92 935.541 496.864C935.541 542.944 962.901 571.456 1002.65 571.456C1027.99 571.456 1052.47 557.632 1059.38 527.104ZM1000.92 435.232C1029.14 435.232 1042.39 456.544 1043.54 485.056H952.533C956.565 451.072 976.725 435.232 1000.92 435.232ZM1119.83 424H1103.99V568H1120.69V487.936C1120.69 450.208 1139.99 434.656 1164.18 434.656C1188.95 434.656 1201.91 449.632 1201.91 478.432V568H1218.61V474.976C1218.61 440.704 1199.6 420.544 1167.63 420.544C1145.17 420.544 1126.45 432.64 1119.83 451.648V424ZM1259.22 525.952C1261.52 556.48 1286.58 571.456 1319.12 571.456C1350.52 571.456 1372.98 552.736 1372.98 528.832C1372.98 505.792 1359.16 495.712 1336.69 490.816L1307.89 485.056C1290.04 481.6 1280.82 475.84 1280.82 462.016C1280.82 445.888 1294.36 434.656 1315.96 434.656C1338.13 434.656 1351.67 443.872 1353.68 460.576H1369.52C1366.64 433.792 1347.06 420.544 1315.96 420.544C1285.43 420.544 1265.27 439.552 1265.27 462.304C1265.27 487.072 1281.68 495.424 1304.72 500.032L1330.07 505.216C1349.94 509.248 1357.14 517.6 1357.14 529.12C1357.14 546.688 1341.3 557.344 1319.12 557.344C1297.52 557.344 1277.36 548.416 1275.35 525.952H1259.22Z" fill="white"/>
<path d="M959.328 419.875L1429.65 419.875" stroke="#5AC8FA" stroke-width="1.84078" stroke-dasharray="2.76 2.76"/>
<path d="M425 572.5L1425 572.5" stroke="#5AC8FA" stroke-width="1.84078" stroke-dasharray="2.76 2.76"/>
<path d="M420.28 361.5H701" stroke="#5AC8FA" stroke-width="1.84078" stroke-dasharray="2.76 2.76"/>
<path d="M414.983 573L415 504" stroke="#5AC8FA" stroke-width="2.76118"/>
<path d="M415 429L415 360" stroke="#5AC8FA" stroke-width="2.76118"/>
<path d="M1430.02 481L1429.65 419.875" stroke="#5AC8FA" stroke-width="2.76118"/>
<path d="M1429.65 572.958L1430 516" stroke="#5AC8FA" stroke-width="2.76118"/>
<path d="M383.227 460.264C386.321 460.264 388.324 458.406 388.605 455.858H386.125C385.801 457.273 384.702 458.108 383.244 458.108C381.088 458.108 379.699 456.31 379.699 453.455C379.699 450.651 381.114 448.886 383.244 448.886C384.864 448.886 385.852 449.909 386.125 451.136H388.605C388.332 448.494 386.176 446.739 383.202 446.739C379.511 446.739 377.125 449.517 377.125 453.514C377.125 457.46 379.426 460.264 383.227 460.264ZM395.14 460.29C397.305 460.29 398.523 459.19 399.009 458.21H399.112V460H401.6V451.307C401.6 447.497 398.6 446.739 396.521 446.739C394.151 446.739 391.969 447.693 391.117 450.08L393.512 450.625C393.887 449.696 394.842 448.801 396.555 448.801C398.2 448.801 399.043 449.662 399.043 451.145V451.205C399.043 452.134 398.089 452.116 395.737 452.389C393.256 452.679 390.717 453.327 390.717 456.301C390.717 458.875 392.651 460.29 395.14 460.29ZM395.694 458.244C394.254 458.244 393.214 457.597 393.214 456.335C393.214 454.972 394.424 454.486 395.898 454.29C396.725 454.179 398.685 453.957 399.052 453.591V455.278C399.052 456.83 397.816 458.244 395.694 458.244ZM404.994 464.909H407.543V457.963H407.696C408.156 458.798 409.094 460.256 411.48 460.256C414.651 460.256 416.952 457.716 416.952 453.48C416.952 449.236 414.616 446.739 411.455 446.739C409.026 446.739 408.148 448.222 407.696 449.031H407.483V446.909H404.994V464.909ZM407.491 453.455C407.491 450.719 408.685 448.903 410.909 448.903C413.219 448.903 414.378 450.855 414.378 453.455C414.378 456.08 413.185 458.082 410.909 458.082C408.719 458.082 407.491 456.207 407.491 453.455ZM380.261 481.227C380.261 479.139 381.582 477.946 383.398 477.946C385.153 477.946 386.202 479.062 386.202 480.98V489H388.75V480.673C388.75 477.409 386.96 475.739 384.267 475.739C382.23 475.739 381.003 476.625 380.389 478.04H380.227V471.545H377.713V489H380.261V481.227ZM397.793 489.264C400.648 489.264 402.668 487.858 403.247 485.727L400.835 485.293C400.375 486.528 399.267 487.159 397.818 487.159C395.636 487.159 394.17 485.744 394.102 483.222H403.409V482.318C403.409 477.588 400.58 475.739 397.614 475.739C393.966 475.739 391.562 478.517 391.562 482.54C391.562 486.605 393.932 489.264 397.793 489.264ZM394.111 481.312C394.213 479.455 395.56 477.844 397.631 477.844C399.608 477.844 400.903 479.31 400.912 481.312H394.111ZM406.237 489H408.785V475.909H406.237V489ZM407.523 473.889C408.401 473.889 409.134 473.207 409.134 472.372C409.134 471.537 408.401 470.847 407.523 470.847C406.637 470.847 405.913 471.537 405.913 472.372C405.913 473.207 406.637 473.889 407.523 473.889ZM417.702 494.182C421.034 494.182 423.608 492.656 423.608 489.29V475.909H421.111V478.031H420.923C420.472 477.222 419.568 475.739 417.131 475.739C413.969 475.739 411.642 478.236 411.642 482.403C411.642 486.58 414.02 488.804 417.114 488.804C419.517 488.804 420.446 487.449 420.906 486.614H421.068V489.188C421.068 491.241 419.662 492.128 417.727 492.128C415.605 492.128 414.778 491.062 414.327 490.312L412.136 491.216C412.827 492.818 414.574 494.182 417.702 494.182ZM417.676 486.69C415.401 486.69 414.216 484.943 414.216 482.369C414.216 479.855 415.375 477.903 417.676 477.903C419.901 477.903 421.094 479.719 421.094 482.369C421.094 485.071 419.875 486.69 417.676 486.69ZM429.574 481.227C429.574 479.139 430.895 477.946 432.71 477.946C434.466 477.946 435.514 479.062 435.514 480.98V489H438.062V480.673C438.062 477.409 436.273 475.739 433.58 475.739C431.543 475.739 430.315 476.625 429.702 478.04H429.54V471.545H427.026V489H429.574V481.227ZM447.574 475.909H444.889V472.773H442.341V475.909H440.423V477.955H442.341V485.685C442.332 488.062 444.148 489.213 446.159 489.17C446.969 489.162 447.514 489.009 447.812 488.898L447.352 486.793C447.182 486.827 446.866 486.903 446.457 486.903C445.631 486.903 444.889 486.631 444.889 485.156V477.955H447.574V475.909Z" fill="white"/>
<path d="M1405.72 491.909H1402.93L1406.95 498.455L1402.88 505H1405.67L1408.61 500.108L1411.56 505H1414.35L1410.23 498.455L1414.32 491.909H1411.53L1408.61 497.006L1405.72 491.909ZM1424.11 496.52H1416.37V498.727H1424.11V496.52ZM1430.05 497.227C1430.05 495.139 1431.37 493.946 1433.19 493.946C1434.94 493.946 1435.99 495.062 1435.99 496.98V505H1438.54V496.673C1438.54 493.409 1436.75 491.739 1434.06 491.739C1432.02 491.739 1430.79 492.625 1430.18 494.04H1430.02V487.545H1427.5V505H1430.05V497.227ZM1447.58 505.264C1450.44 505.264 1452.46 503.858 1453.04 501.727L1450.62 501.293C1450.16 502.528 1449.06 503.159 1447.61 503.159C1445.43 503.159 1443.96 501.744 1443.89 499.222H1453.2V498.318C1453.2 493.588 1450.37 491.739 1447.4 491.739C1443.75 491.739 1441.35 494.517 1441.35 498.54C1441.35 502.605 1443.72 505.264 1447.58 505.264ZM1443.9 497.312C1444 495.455 1445.35 493.844 1447.42 493.844C1449.4 493.844 1450.69 495.31 1450.7 497.312H1443.9ZM1456.03 505H1458.57V491.909H1456.03V505ZM1457.31 489.889C1458.19 489.889 1458.92 489.207 1458.92 488.372C1458.92 487.537 1458.19 486.847 1457.31 486.847C1456.43 486.847 1455.7 487.537 1455.7 488.372C1455.7 489.207 1456.43 489.889 1457.31 489.889ZM1467.49 510.182C1470.82 510.182 1473.4 508.656 1473.4 505.29V491.909H1470.9V494.031H1470.71C1470.26 493.222 1469.36 491.739 1466.92 491.739C1463.76 491.739 1461.43 494.236 1461.43 498.403C1461.43 502.58 1463.81 504.804 1466.9 504.804C1469.31 504.804 1470.24 503.449 1470.7 502.614H1470.86V505.188C1470.86 507.241 1469.45 508.128 1467.52 508.128C1465.39 508.128 1464.57 507.062 1464.12 506.312L1461.93 507.216C1462.62 508.818 1464.36 510.182 1467.49 510.182ZM1467.47 502.69C1465.19 502.69 1464 500.943 1464 498.369C1464 495.855 1465.16 493.903 1467.47 493.903C1469.69 493.903 1470.88 495.719 1470.88 498.369C1470.88 501.071 1469.66 502.69 1467.47 502.69ZM1479.36 497.227C1479.36 495.139 1480.68 493.946 1482.5 493.946C1484.25 493.946 1485.3 495.062 1485.3 496.98V505H1487.85V496.673C1487.85 493.409 1486.06 491.739 1483.37 491.739C1481.33 491.739 1480.1 492.625 1479.49 494.04H1479.33V487.545H1476.81V505H1479.36V497.227ZM1497.36 491.909H1494.68V488.773H1492.13V491.909H1490.21V493.955H1492.13V501.685C1492.12 504.062 1493.94 505.213 1495.95 505.17C1496.76 505.162 1497.3 505.009 1497.6 504.898L1497.14 502.793C1496.97 502.827 1496.66 502.903 1496.25 502.903C1495.42 502.903 1494.68 502.631 1494.68 501.156V493.955H1497.36V491.909Z" fill="white"/>
<path d="M501.523 670.105C500.994 668.068 499.401 666.739 496.571 666.739C493.614 666.739 491.517 668.298 491.517 670.616C491.517 672.474 492.642 673.71 495.097 674.256L497.312 674.741C498.574 675.023 499.162 675.585 499.162 676.403C499.162 677.418 498.08 678.21 496.409 678.21C494.884 678.21 493.903 677.554 493.597 676.267L491.134 676.642C491.56 678.96 493.486 680.264 496.426 680.264C499.588 680.264 501.778 678.585 501.778 676.216C501.778 674.366 500.602 673.224 498.199 672.67L496.119 672.193C494.679 671.852 494.057 671.366 494.065 670.48C494.057 669.474 495.148 668.759 496.597 668.759C498.182 668.759 498.915 669.636 499.213 670.514L501.523 670.105ZM510.691 666.909H508.006V663.773H505.458V666.909H503.54V668.955H505.458V676.685C505.45 679.062 507.265 680.213 509.276 680.17C510.086 680.162 510.631 680.009 510.93 679.898L510.469 677.793C510.299 677.827 509.984 677.903 509.575 677.903C508.748 677.903 508.006 677.631 508.006 676.156V668.955H510.691V666.909ZM519.011 680.264C521.866 680.264 523.886 678.858 524.466 676.727L522.054 676.293C521.594 677.528 520.486 678.159 519.037 678.159C516.855 678.159 515.389 676.744 515.321 674.222H524.628V673.318C524.628 668.588 521.798 666.739 518.832 666.739C515.185 666.739 512.781 669.517 512.781 673.54C512.781 677.605 515.151 680.264 519.011 680.264ZM515.33 672.312C515.432 670.455 516.778 668.844 518.849 668.844C520.827 668.844 522.122 670.31 522.131 672.312H515.33ZM527.455 680H530.004V671.929C530.004 670.165 531.239 668.938 532.688 668.938C534.103 668.938 535.083 669.875 535.083 671.298V680H537.623V671.656C537.623 670.08 538.586 668.938 540.248 668.938C541.594 668.938 542.702 669.688 542.702 671.46V680H545.251V671.222C545.251 668.23 543.58 666.739 541.211 666.739C539.327 666.739 537.913 667.642 537.282 669.04H537.146C536.575 667.608 535.373 666.739 533.626 666.739C531.896 666.739 530.609 667.599 530.063 669.04H529.901V666.909H527.455V680Z" fill="white"/>
<path d="M521.338 460H479V675.832" stroke="#5AC8FA" stroke-width="1.84078"/>
<path d="M1167 408.432L1167 246.443" stroke="#5AC8FA" stroke-width="1.84078"/>
<path d="M1178.26 236.545H1175.71V254H1178.26V236.545ZM1187.2 254.264C1190.89 254.264 1193.31 251.562 1193.31 247.514C1193.31 243.44 1190.89 240.739 1187.2 240.739C1183.51 240.739 1181.1 243.44 1181.1 247.514C1181.1 251.562 1183.51 254.264 1187.2 254.264ZM1187.21 252.125C1184.8 252.125 1183.68 250.02 1183.68 247.506C1183.68 245 1184.8 242.869 1187.21 242.869C1189.61 242.869 1190.73 245 1190.73 247.506C1190.73 250.02 1189.61 252.125 1187.21 252.125ZM1198.59 254H1201.18L1203.84 244.548H1204.04L1206.7 254H1209.29L1213.14 240.909H1210.5L1207.96 250.48H1207.83L1205.27 240.909H1202.64L1200.06 250.523H1199.94L1197.37 240.909H1194.74L1198.59 254ZM1220.8 254.264C1223.66 254.264 1225.68 252.858 1226.25 250.727L1223.84 250.293C1223.38 251.528 1222.27 252.159 1220.83 252.159C1218.64 252.159 1217.18 250.744 1217.11 248.222H1226.42V247.318C1226.42 242.588 1223.59 240.739 1220.62 240.739C1216.97 240.739 1214.57 243.517 1214.57 247.54C1214.57 251.605 1216.94 254.264 1220.8 254.264ZM1217.12 246.312C1217.22 244.455 1218.57 242.844 1220.64 242.844C1222.62 242.844 1223.91 244.31 1223.92 246.312H1217.12ZM1229.24 254H1231.79V246.006C1231.79 244.293 1233.11 243.057 1234.92 243.057C1235.45 243.057 1236.05 243.151 1236.25 243.21V240.773C1235.99 240.739 1235.49 240.713 1235.17 240.713C1233.63 240.713 1232.32 241.582 1231.84 242.989H1231.71V240.909H1229.24V254ZM1243.5 254.264C1246.59 254.264 1248.6 252.406 1248.88 249.858H1246.4C1246.07 251.273 1244.98 252.108 1243.52 252.108C1241.36 252.108 1239.97 250.31 1239.97 247.455C1239.97 244.651 1241.39 242.886 1243.52 242.886C1245.14 242.886 1246.13 243.909 1246.4 245.136H1248.88C1248.61 242.494 1246.45 240.739 1243.48 240.739C1239.78 240.739 1237.4 243.517 1237.4 247.514C1237.4 251.46 1239.7 254.264 1243.5 254.264ZM1255.41 254.29C1257.58 254.29 1258.8 253.19 1259.28 252.21H1259.38V254H1261.87V245.307C1261.87 241.497 1258.87 240.739 1256.79 240.739C1254.42 240.739 1252.24 241.693 1251.39 244.08L1253.79 244.625C1254.16 243.696 1255.12 242.801 1256.83 242.801C1258.47 242.801 1259.32 243.662 1259.32 245.145V245.205C1259.32 246.134 1258.36 246.116 1256.01 246.389C1253.53 246.679 1250.99 247.327 1250.99 250.301C1250.99 252.875 1252.92 254.29 1255.41 254.29ZM1255.97 252.244C1254.53 252.244 1253.49 251.597 1253.49 250.335C1253.49 248.972 1254.7 248.486 1256.17 248.29C1257 248.179 1258.96 247.957 1259.33 247.591V249.278C1259.33 250.83 1258.09 252.244 1255.97 252.244ZM1275.08 244.105C1274.55 242.068 1272.96 240.739 1270.13 240.739C1267.17 240.739 1265.07 242.298 1265.07 244.616C1265.07 246.474 1266.2 247.71 1268.65 248.256L1270.87 248.741C1272.13 249.023 1272.72 249.585 1272.72 250.403C1272.72 251.418 1271.63 252.21 1269.96 252.21C1268.44 252.21 1267.46 251.554 1267.15 250.267L1264.69 250.642C1265.11 252.96 1267.04 254.264 1269.98 254.264C1273.14 254.264 1275.33 252.585 1275.33 250.216C1275.33 248.366 1274.16 247.224 1271.75 246.67L1269.67 246.193C1268.23 245.852 1267.61 245.366 1267.62 244.48C1267.61 243.474 1268.7 242.759 1270.15 242.759C1271.74 242.759 1272.47 243.636 1272.77 244.514L1275.08 244.105ZM1283.78 254.264C1286.63 254.264 1288.65 252.858 1289.23 250.727L1286.82 250.293C1286.36 251.528 1285.25 252.159 1283.8 252.159C1281.62 252.159 1280.15 250.744 1280.09 248.222H1289.39V247.318C1289.39 242.588 1286.56 240.739 1283.6 240.739C1279.95 240.739 1277.55 243.517 1277.55 247.54C1277.55 251.605 1279.92 254.264 1283.78 254.264ZM1280.1 246.312C1280.2 244.455 1281.54 242.844 1283.62 242.844C1285.59 242.844 1286.89 244.31 1286.9 246.312H1280.1ZM1181.23 283.264C1184.32 283.264 1186.32 281.406 1186.61 278.858H1184.12C1183.8 280.273 1182.7 281.108 1181.24 281.108C1179.09 281.108 1177.7 279.31 1177.7 276.455C1177.7 273.651 1179.11 271.886 1181.24 271.886C1182.86 271.886 1183.85 272.909 1184.12 274.136H1186.61C1186.33 271.494 1184.18 269.739 1181.2 269.739C1177.51 269.739 1175.12 272.517 1175.12 276.514C1175.12 280.46 1177.43 283.264 1181.23 283.264ZM1191.88 275.227C1191.88 273.139 1193.2 271.946 1195.01 271.946C1196.77 271.946 1197.82 273.062 1197.82 274.98V283H1200.37V274.673C1200.37 271.409 1198.58 269.739 1195.88 269.739C1193.85 269.739 1192.62 270.625 1192.01 272.04H1191.84V265.545H1189.33V283H1191.88V275.227ZM1207.58 283.29C1209.74 283.29 1210.96 282.19 1211.45 281.21H1211.55V283H1214.04V274.307C1214.04 270.497 1211.04 269.739 1208.96 269.739C1206.59 269.739 1204.41 270.693 1203.55 273.08L1205.95 273.625C1206.32 272.696 1207.28 271.801 1208.99 271.801C1210.64 271.801 1211.48 272.662 1211.48 274.145V274.205C1211.48 275.134 1210.53 275.116 1208.17 275.389C1205.69 275.679 1203.15 276.327 1203.15 279.301C1203.15 281.875 1205.09 283.29 1207.58 283.29ZM1208.13 281.244C1206.69 281.244 1205.65 280.597 1205.65 279.335C1205.65 277.972 1206.86 277.486 1208.34 277.29C1209.16 277.179 1211.12 276.957 1211.49 276.591V278.278C1211.49 279.83 1210.25 281.244 1208.13 281.244ZM1217.43 283H1219.98V275.006C1219.98 273.293 1221.3 272.057 1223.11 272.057C1223.64 272.057 1224.23 272.151 1224.44 272.21V269.773C1224.18 269.739 1223.68 269.713 1223.36 269.713C1221.82 269.713 1220.51 270.582 1220.03 271.989H1219.89V269.909H1217.43V283ZM1230.34 283.29C1232.5 283.29 1233.72 282.19 1234.2 281.21H1234.31V283H1236.8V274.307C1236.8 270.497 1233.8 269.739 1231.72 269.739C1229.35 269.739 1227.16 270.693 1226.31 273.08L1228.71 273.625C1229.08 272.696 1230.04 271.801 1231.75 271.801C1233.39 271.801 1234.24 272.662 1234.24 274.145V274.205C1234.24 275.134 1233.28 275.116 1230.93 275.389C1228.45 275.679 1225.91 276.327 1225.91 279.301C1225.91 281.875 1227.85 283.29 1230.34 283.29ZM1230.89 281.244C1229.45 281.244 1228.41 280.597 1228.41 279.335C1228.41 277.972 1229.62 277.486 1231.09 277.29C1231.92 277.179 1233.88 276.957 1234.25 276.591V278.278C1234.25 279.83 1233.01 281.244 1230.89 281.244ZM1245.7 283.264C1248.8 283.264 1250.8 281.406 1251.08 278.858H1248.6C1248.28 280.273 1247.18 281.108 1245.72 281.108C1243.56 281.108 1242.18 279.31 1242.18 276.455C1242.18 273.651 1243.59 271.886 1245.72 271.886C1247.34 271.886 1248.33 272.909 1248.6 274.136H1251.08C1250.81 271.494 1248.65 269.739 1245.68 269.739C1241.99 269.739 1239.6 272.517 1239.6 276.514C1239.6 280.46 1241.9 283.264 1245.7 283.264ZM1259.92 269.909H1257.23V266.773H1254.68V269.909H1252.77V271.955H1254.68V279.685C1254.68 282.062 1256.49 283.213 1258.5 283.17C1259.31 283.162 1259.86 283.009 1260.16 282.898L1259.7 280.793C1259.53 280.827 1259.21 280.903 1258.8 280.903C1257.97 280.903 1257.23 280.631 1257.23 279.156V271.955H1259.92V269.909ZM1268.24 283.264C1271.09 283.264 1273.11 281.858 1273.69 279.727L1271.28 279.293C1270.82 280.528 1269.71 281.159 1268.26 281.159C1266.08 281.159 1264.62 279.744 1264.55 277.222H1273.85V276.318C1273.85 271.588 1271.02 269.739 1268.06 269.739C1264.41 269.739 1262.01 272.517 1262.01 276.54C1262.01 280.605 1264.38 283.264 1268.24 283.264ZM1264.56 275.312C1264.66 273.455 1266 271.844 1268.08 271.844C1270.05 271.844 1271.35 273.31 1271.36 275.312H1264.56ZM1276.68 283H1279.23V275.006C1279.23 273.293 1280.55 272.057 1282.36 272.057C1282.89 272.057 1283.48 272.151 1283.69 272.21V269.773C1283.43 269.739 1282.93 269.713 1282.61 269.713C1281.07 269.713 1279.76 270.582 1279.28 271.989H1279.14V269.909H1276.68V283ZM1176.45 303.273C1176.45 307.551 1177.6 311.114 1179.76 314.148H1182.1C1180.42 311.898 1179.1 307.33 1179.1 303.273C1179.1 299.224 1180.42 294.656 1182.1 292.406H1179.76C1177.6 295.44 1176.45 299.003 1176.45 303.273ZM1196.21 294.545V305.812C1196.21 308.182 1194.58 309.886 1191.92 309.886C1189.27 309.886 1187.62 308.182 1187.62 305.812V294.545H1184.99V306.026C1184.99 309.69 1187.73 312.29 1191.92 312.29C1196.1 312.29 1198.85 309.69 1198.85 306.026V294.545H1196.21ZM1203.34 312.162C1204.27 312.162 1205.04 311.403 1205.04 310.457C1205.04 309.528 1204.27 308.761 1203.34 308.761C1202.4 308.761 1201.63 309.528 1201.63 310.457C1201.63 311.403 1202.4 312.162 1203.34 312.162ZM1223.16 300.222C1222.56 296.489 1219.64 294.307 1215.95 294.307C1211.43 294.307 1208.1 297.69 1208.1 303.273C1208.1 308.855 1211.41 312.239 1215.95 312.239C1219.78 312.239 1222.59 309.835 1223.16 306.384L1220.5 306.375C1220.05 308.608 1218.17 309.835 1215.96 309.835C1212.97 309.835 1210.71 307.543 1210.71 303.273C1210.71 299.037 1212.96 296.71 1215.97 296.71C1218.2 296.71 1220.06 297.963 1220.5 300.222H1223.16ZM1227.78 312.162C1228.71 312.162 1229.49 311.403 1229.49 310.457C1229.49 309.528 1228.71 308.761 1227.78 308.761C1226.85 308.761 1226.08 309.528 1226.08 310.457C1226.08 311.403 1226.85 312.162 1227.78 312.162ZM1237.8 304.764C1237.8 300.486 1236.66 296.923 1234.49 293.889H1232.16C1233.84 296.139 1235.16 300.707 1235.16 304.764C1235.16 308.812 1233.84 313.381 1232.16 315.631H1234.49C1236.66 312.597 1237.8 309.034 1237.8 304.764Z" fill="white"/>
<path d="M530 351.226V250.903" stroke="#5AC8FA" stroke-width="1.84078"/>
<path d="M547.006 248.571C547.014 250.795 545.361 251.852 543.929 251.852C542.352 251.852 541.261 250.71 541.261 248.929V240.909H538.713V249.236C538.713 252.483 540.494 254.17 543.009 254.17C544.977 254.17 546.315 253.131 546.92 251.733H547.057V254H549.562V240.909H547.006V248.571ZM552.987 258.909H555.535V251.963H555.688C556.148 252.798 557.086 254.256 559.472 254.256C562.643 254.256 564.944 251.716 564.944 247.48C564.944 243.236 562.609 240.739 559.447 240.739C557.018 240.739 556.14 242.222 555.688 243.031H555.475V240.909H552.987V258.909ZM555.484 247.455C555.484 244.719 556.677 242.903 558.901 242.903C561.211 242.903 562.37 244.855 562.37 247.455C562.37 250.08 561.177 252.082 558.901 252.082C556.711 252.082 555.484 250.207 555.484 247.455ZM567.799 258.909H570.347V251.963H570.501C570.961 252.798 571.898 254.256 574.285 254.256C577.455 254.256 579.756 251.716 579.756 247.48C579.756 243.236 577.421 240.739 574.259 240.739C571.83 240.739 570.952 242.222 570.501 243.031H570.288V240.909H567.799V258.909ZM570.296 247.455C570.296 244.719 571.489 242.903 573.714 242.903C576.023 242.903 577.183 244.855 577.183 247.455C577.183 250.08 575.989 252.082 573.714 252.082C571.523 252.082 570.296 250.207 570.296 247.455ZM588.254 254.264C591.109 254.264 593.129 252.858 593.708 250.727L591.296 250.293C590.836 251.528 589.728 252.159 588.279 252.159C586.097 252.159 584.631 250.744 584.563 248.222H593.87V247.318C593.87 242.588 591.04 240.739 588.075 240.739C584.427 240.739 582.023 243.517 582.023 247.54C582.023 251.605 584.393 254.264 588.254 254.264ZM584.572 246.312C584.674 244.455 586.021 242.844 588.092 242.844C590.069 242.844 591.364 244.31 591.373 246.312H584.572ZM596.697 254H599.246V246.006C599.246 244.293 600.567 243.057 602.374 243.057C602.902 243.057 603.499 243.151 603.703 243.21V240.773C603.447 240.739 602.945 240.713 602.621 240.713C601.087 240.713 599.774 241.582 599.297 242.989H599.161V240.909H596.697V254ZM610.954 254.264C614.048 254.264 616.05 252.406 616.332 249.858H613.852C613.528 251.273 612.428 252.108 610.971 252.108C608.815 252.108 607.425 250.31 607.425 247.455C607.425 244.651 608.84 242.886 610.971 242.886C612.59 242.886 613.579 243.909 613.852 245.136H616.332C616.059 242.494 613.903 240.739 610.928 240.739C607.238 240.739 604.852 243.517 604.852 247.514C604.852 251.46 607.153 254.264 610.954 254.264ZM622.866 254.29C625.031 254.29 626.25 253.19 626.736 252.21H626.838V254H629.327V245.307C629.327 241.497 626.327 240.739 624.247 240.739C621.878 240.739 619.696 241.693 618.844 244.08L621.239 244.625C621.614 243.696 622.568 242.801 624.281 242.801C625.926 242.801 626.77 243.662 626.77 245.145V245.205C626.77 246.134 625.815 246.116 623.463 246.389C620.983 246.679 618.443 247.327 618.443 250.301C618.443 252.875 620.378 254.29 622.866 254.29ZM623.42 252.244C621.98 252.244 620.94 251.597 620.94 250.335C620.94 248.972 622.151 248.486 623.625 248.29C624.452 248.179 626.412 247.957 626.778 247.591V249.278C626.778 250.83 625.543 252.244 623.42 252.244ZM642.531 244.105C642.002 242.068 640.408 240.739 637.579 240.739C634.621 240.739 632.525 242.298 632.525 244.616C632.525 246.474 633.65 247.71 636.104 248.256L638.32 248.741C639.582 249.023 640.17 249.585 640.17 250.403C640.17 251.418 639.087 252.21 637.417 252.21C635.891 252.21 634.911 251.554 634.604 250.267L632.141 250.642C632.567 252.96 634.494 254.264 637.434 254.264C640.596 254.264 642.786 252.585 642.786 250.216C642.786 248.366 641.61 247.224 639.207 246.67L637.127 246.193C635.687 245.852 635.065 245.366 635.073 244.48C635.065 243.474 636.156 242.759 637.604 242.759C639.19 242.759 639.923 243.636 640.221 244.514L642.531 244.105ZM651.23 254.264C654.085 254.264 656.105 252.858 656.685 250.727L654.273 250.293C653.812 251.528 652.705 252.159 651.256 252.159C649.074 252.159 647.608 250.744 647.54 248.222H656.847V247.318C656.847 242.588 654.017 240.739 651.051 240.739C647.403 240.739 645 243.517 645 247.54C645 251.605 647.369 254.264 651.23 254.264ZM647.548 246.312C647.651 244.455 648.997 242.844 651.068 242.844C653.045 242.844 654.341 244.31 654.349 246.312H647.548ZM544.227 283.264C547.321 283.264 549.324 281.406 549.605 278.858H547.125C546.801 280.273 545.702 281.108 544.244 281.108C542.088 281.108 540.699 279.31 540.699 276.455C540.699 273.651 542.114 271.886 544.244 271.886C545.864 271.886 546.852 272.909 547.125 274.136H549.605C549.332 271.494 547.176 269.739 544.202 269.739C540.511 269.739 538.125 272.517 538.125 276.514C538.125 280.46 540.426 283.264 544.227 283.264ZM554.879 275.227C554.879 273.139 556.2 271.946 558.015 271.946C559.771 271.946 560.819 273.062 560.819 274.98V283H563.367V274.673C563.367 271.409 561.577 269.739 558.884 269.739C556.847 269.739 555.62 270.625 555.006 272.04H554.844V265.545H552.33V283H554.879V275.227ZM570.577 283.29C572.742 283.29 573.961 282.19 574.447 281.21H574.549V283H577.038V274.307C577.038 270.497 574.038 269.739 571.958 269.739C569.589 269.739 567.407 270.693 566.555 273.08L568.95 273.625C569.325 272.696 570.279 271.801 571.992 271.801C573.637 271.801 574.481 272.662 574.481 274.145V274.205C574.481 275.134 573.526 275.116 571.174 275.389C568.694 275.679 566.154 276.327 566.154 279.301C566.154 281.875 568.089 283.29 570.577 283.29ZM571.131 281.244C569.691 281.244 568.651 280.597 568.651 279.335C568.651 277.972 569.862 277.486 571.336 277.29C572.163 277.179 574.123 276.957 574.489 276.591V278.278C574.489 279.83 573.254 281.244 571.131 281.244ZM580.432 283H582.98V275.006C582.98 273.293 584.301 272.057 586.108 272.057C586.636 272.057 587.233 272.151 587.438 272.21V269.773C587.182 269.739 586.679 269.713 586.355 269.713C584.821 269.713 583.509 270.582 583.031 271.989H582.895V269.909H580.432V283ZM593.335 283.29C595.5 283.29 596.719 282.19 597.205 281.21H597.307V283H599.795V274.307C599.795 270.497 596.795 269.739 594.716 269.739C592.347 269.739 590.165 270.693 589.312 273.08L591.707 273.625C592.082 272.696 593.037 271.801 594.75 271.801C596.395 271.801 597.239 272.662 597.239 274.145V274.205C597.239 275.134 596.284 275.116 593.932 275.389C591.452 275.679 588.912 276.327 588.912 279.301C588.912 281.875 590.847 283.29 593.335 283.29ZM593.889 281.244C592.449 281.244 591.409 280.597 591.409 279.335C591.409 277.972 592.619 277.486 594.094 277.29C594.92 277.179 596.881 276.957 597.247 276.591V278.278C597.247 279.83 596.011 281.244 593.889 281.244ZM608.704 283.264C611.798 283.264 613.8 281.406 614.082 278.858H611.602C611.278 280.273 610.178 281.108 608.721 281.108C606.565 281.108 605.175 279.31 605.175 276.455C605.175 273.651 606.59 271.886 608.721 271.886C610.34 271.886 611.329 272.909 611.602 274.136H614.082C613.809 271.494 611.653 269.739 608.678 269.739C604.988 269.739 602.602 272.517 602.602 276.514C602.602 280.46 604.903 283.264 608.704 283.264ZM622.918 269.909H620.233V266.773H617.685V269.909H615.767V271.955H617.685V279.685C617.676 282.062 619.491 283.213 621.503 283.17C622.312 283.162 622.858 283.009 623.156 282.898L622.696 280.793C622.526 280.827 622.21 280.903 621.801 280.903C620.974 280.903 620.233 280.631 620.233 279.156V271.955H622.918V269.909ZM631.238 283.264C634.093 283.264 636.113 281.858 636.692 279.727L634.281 279.293C633.82 280.528 632.712 281.159 631.263 281.159C629.082 281.159 627.616 279.744 627.548 277.222H636.854V276.318C636.854 271.588 634.025 269.739 631.059 269.739C627.411 269.739 625.008 272.517 625.008 276.54C625.008 280.605 627.377 283.264 631.238 283.264ZM627.556 275.312C627.658 273.455 629.005 271.844 631.076 271.844C633.053 271.844 634.349 273.31 634.357 275.312H627.556ZM639.682 283H642.23V275.006C642.23 273.293 643.551 272.057 645.358 272.057C645.886 272.057 646.483 272.151 646.688 272.21V269.773C646.432 269.739 645.929 269.713 645.605 269.713C644.071 269.713 642.759 270.582 642.281 271.989H642.145V269.909H639.682V283ZM539.455 303.273C539.455 307.551 540.597 311.114 542.761 314.148H545.097C543.418 311.898 542.097 307.33 542.097 303.273C542.097 299.224 543.418 294.656 545.097 292.406H542.761C540.597 295.44 539.455 299.003 539.455 303.273ZM559.212 294.545V305.812C559.212 308.182 557.576 309.886 554.917 309.886C552.266 309.886 550.621 308.182 550.621 305.812V294.545H547.988V306.026C547.988 309.69 550.732 312.29 554.917 312.29C559.102 312.29 561.854 309.69 561.854 306.026V294.545H559.212ZM566.337 312.162C567.266 312.162 568.042 311.403 568.042 310.457C568.042 309.528 567.266 308.761 566.337 308.761C565.4 308.761 564.633 309.528 564.633 310.457C564.633 311.403 565.4 312.162 566.337 312.162ZM586.157 300.222C585.56 296.489 582.637 294.307 578.947 294.307C574.43 294.307 571.097 297.69 571.097 303.273C571.097 308.855 574.413 312.239 578.947 312.239C582.782 312.239 585.586 309.835 586.157 306.384L583.498 306.375C583.046 308.608 581.171 309.835 578.964 309.835C575.972 309.835 573.714 307.543 573.714 303.273C573.714 299.037 575.964 296.71 578.972 296.71C581.197 296.71 583.063 297.963 583.498 300.222H586.157ZM590.783 312.162C591.712 312.162 592.487 311.403 592.487 310.457C592.487 309.528 591.712 308.761 590.783 308.761C589.845 308.761 589.078 309.528 589.078 310.457C589.078 311.403 589.845 312.162 590.783 312.162ZM600.801 304.764C600.801 300.486 599.659 296.923 597.494 293.889H595.159C596.838 296.139 598.159 300.707 598.159 304.764C598.159 308.812 596.838 313.381 595.159 315.631H597.494C599.659 312.597 600.801 309.034 600.801 304.764Z" fill="white"/>
<path d="M717 694.113L717 522" stroke="#5AC8FA" stroke-width="1.84078"/>
<path d="M730.227 693.264C733.321 693.264 735.324 691.406 735.605 688.858H733.125C732.801 690.273 731.702 691.108 730.244 691.108C728.088 691.108 726.699 689.31 726.699 686.455C726.699 683.651 728.114 681.886 730.244 681.886C731.864 681.886 732.852 682.909 733.125 684.136H735.605C735.332 681.494 733.176 679.739 730.202 679.739C726.511 679.739 724.125 682.517 724.125 686.514C724.125 690.46 726.426 693.264 730.227 693.264ZM743.844 693.264C747.535 693.264 749.947 690.562 749.947 686.514C749.947 682.44 747.535 679.739 743.844 679.739C740.154 679.739 737.742 682.44 737.742 686.514C737.742 690.562 740.154 693.264 743.844 693.264ZM743.853 691.125C741.441 691.125 740.316 689.02 740.316 686.506C740.316 684 741.441 681.869 743.853 681.869C746.248 681.869 747.373 684 747.373 686.506C747.373 689.02 746.248 691.125 743.853 691.125ZM761.084 687.571C761.092 689.795 759.439 690.852 758.007 690.852C756.43 690.852 755.339 689.71 755.339 687.929V679.909H752.791V688.236C752.791 691.483 754.572 693.17 757.087 693.17C759.055 693.17 760.393 692.131 760.999 690.733H761.135V693H763.641V679.909H761.084V687.571ZM769.613 685.227C769.613 683.139 770.891 681.946 772.664 681.946C774.394 681.946 775.442 683.08 775.442 684.98V693H777.991V684.673C777.991 681.435 776.21 679.739 773.533 679.739C771.565 679.739 770.278 680.651 769.673 682.04H769.511V679.909H767.065V693H769.613V685.227ZM787.519 679.909H784.835V676.773H782.286V679.909H780.369V681.955H782.286V689.685C782.278 692.062 784.093 693.213 786.104 693.17C786.914 693.162 787.46 693.009 787.758 692.898L787.298 690.793C787.127 690.827 786.812 690.903 786.403 690.903C785.576 690.903 784.835 690.631 784.835 689.156V681.955H787.519V679.909ZM795.839 693.264C798.695 693.264 800.714 691.858 801.294 689.727L798.882 689.293C798.422 690.528 797.314 691.159 795.865 691.159C793.683 691.159 792.217 689.744 792.149 687.222H801.456V686.318C801.456 681.588 798.626 679.739 795.661 679.739C792.013 679.739 789.609 682.517 789.609 686.54C789.609 690.605 791.979 693.264 795.839 693.264ZM792.158 685.312C792.26 683.455 793.607 681.844 795.678 681.844C797.655 681.844 798.95 683.31 798.959 685.312H792.158ZM804.283 693H806.832V685.006C806.832 683.293 808.153 682.057 809.96 682.057C810.488 682.057 811.085 682.151 811.289 682.21V679.773C811.033 679.739 810.531 679.713 810.207 679.713C808.673 679.713 807.36 680.582 806.883 681.989H806.746V679.909H804.283V693Z" fill="white"/>
<path d="M1390 711.979L1390 573" stroke="#5AC8FA" stroke-width="1.84078"/>
<path d="M1395.92 715H1398.41V712.963H1398.62C1399.08 713.798 1400.02 715.256 1402.4 715.256C1405.57 715.256 1407.88 712.716 1407.88 708.48C1407.88 704.236 1405.54 701.739 1402.38 701.739C1399.95 701.739 1399.07 703.222 1398.62 704.031H1398.47V697.545H1395.92V715ZM1398.41 708.455C1398.41 705.719 1399.61 703.903 1401.83 703.903C1404.14 703.903 1405.3 705.855 1405.3 708.455C1405.3 711.08 1404.11 713.082 1401.83 713.082C1399.64 713.082 1398.41 711.207 1398.41 708.455ZM1414.55 715.29C1416.71 715.29 1417.93 714.19 1418.42 713.21H1418.52V715H1421.01V706.307C1421.01 702.497 1418.01 701.739 1415.93 701.739C1413.56 701.739 1411.38 702.693 1410.52 705.08L1412.92 705.625C1413.29 704.696 1414.25 703.801 1415.96 703.801C1417.61 703.801 1418.45 704.662 1418.45 706.145V706.205C1418.45 707.134 1417.5 707.116 1415.14 707.389C1412.66 707.679 1410.12 708.327 1410.12 711.301C1410.12 713.875 1412.06 715.29 1414.55 715.29ZM1415.1 713.244C1413.66 713.244 1412.62 712.597 1412.62 711.335C1412.62 709.972 1413.83 709.486 1415.3 709.29C1416.13 709.179 1418.09 708.957 1418.46 708.591V710.278C1418.46 711.83 1417.22 713.244 1415.1 713.244ZM1434.21 705.105C1433.68 703.068 1432.09 701.739 1429.26 701.739C1426.3 701.739 1424.2 703.298 1424.2 705.616C1424.2 707.474 1425.33 708.71 1427.78 709.256L1430 709.741C1431.26 710.023 1431.85 710.585 1431.85 711.403C1431.85 712.418 1430.77 713.21 1429.1 713.21C1427.57 713.21 1426.59 712.554 1426.28 711.267L1423.82 711.642C1424.25 713.96 1426.17 715.264 1429.11 715.264C1432.28 715.264 1434.47 713.585 1434.47 711.216C1434.47 709.366 1433.29 708.224 1430.89 707.67L1428.81 707.193C1427.37 706.852 1426.74 706.366 1426.75 705.48C1426.74 704.474 1427.84 703.759 1429.28 703.759C1430.87 703.759 1431.6 704.636 1431.9 705.514L1434.21 705.105ZM1442.91 715.264C1445.76 715.264 1447.78 713.858 1448.36 711.727L1445.95 711.293C1445.49 712.528 1444.38 713.159 1442.94 713.159C1440.75 713.159 1439.29 711.744 1439.22 709.222H1448.53V708.318C1448.53 703.588 1445.7 701.739 1442.73 701.739C1439.08 701.739 1436.68 704.517 1436.68 708.54C1436.68 712.605 1439.05 715.264 1442.91 715.264ZM1439.23 707.312C1439.33 705.455 1440.68 703.844 1442.75 703.844C1444.73 703.844 1446.02 705.31 1446.03 707.312H1439.23ZM1453.9 697.545H1451.35V715H1453.9V697.545ZM1457.33 715H1459.88V701.909H1457.33V715ZM1458.62 699.889C1459.5 699.889 1460.23 699.207 1460.23 698.372C1460.23 697.537 1459.5 696.847 1458.62 696.847C1457.73 696.847 1457.01 697.537 1457.01 698.372C1457.01 699.207 1457.73 699.889 1458.62 699.889ZM1465.86 707.227C1465.86 705.139 1467.13 703.946 1468.91 703.946C1470.64 703.946 1471.68 705.08 1471.68 706.98V715H1474.23V706.673C1474.23 703.435 1472.45 701.739 1469.78 701.739C1467.81 701.739 1466.52 702.651 1465.91 704.04H1465.75V701.909H1463.31V715H1465.86V707.227ZM1483.29 715.264C1486.15 715.264 1488.17 713.858 1488.75 711.727L1486.34 711.293C1485.88 712.528 1484.77 713.159 1483.32 713.159C1481.14 713.159 1479.67 711.744 1479.6 709.222H1488.91V708.318C1488.91 703.588 1486.08 701.739 1483.11 701.739C1479.47 701.739 1477.06 704.517 1477.06 708.54C1477.06 712.605 1479.43 715.264 1483.29 715.264ZM1479.61 707.312C1479.71 705.455 1481.06 703.844 1483.13 703.844C1485.11 703.844 1486.4 705.31 1486.41 707.312H1479.61Z" fill="white"/>
</svg>
